<svg width="5" height="10" viewBox="0 0 5 10" fill="none" xmlns="http://www.w3.org/2000/svg">
<mask id="path-1-inside-1_1150_4061" fill="white">
<path d="M5 10L0.406833 5.88384C-0.135611 5.39773 -0.135611 4.60227 0.406833 4.11616L5 0"/>
</mask>
<path d="M0.406833 5.88384L1.07421 5.13912L0.406833 5.88384ZM0.406833 4.11616L1.07421 4.86088L0.406833 4.11616ZM5.66738 9.25528L1.07421 5.13912L-0.260545 6.62856L4.33262 10.7447L5.66738 9.25528ZM1.07421 5.13912C1.0112 5.08265 1 5.03155 1 5C1 4.96845 1.0112 4.91735 1.07421 4.86088L-0.260545 3.37144C-1.24648 4.25499 -1.24648 5.74501 -0.260545 6.62856L1.07421 5.13912ZM1.07421 4.86088L5.66738 0.744718L4.33262 -0.744718L-0.260545 3.37144L1.07421 4.86088Z" fill="currentColor" mask="url(#path-1-inside-1_1150_4061)"/>
</svg>
