<svg width="14" height="14" viewBox="0 0 14 14" fill="none" xmlns="http://www.w3.org/2000/svg">
<path d="M8.47585 5.52412L5.52418 8.47579C5.14502 8.09662 4.91168 7.57745 4.91168 6.99995C4.91168 5.84495 5.84502 4.91162 7.00002 4.91162C7.57752 4.91162 8.09668 5.14495 8.47585 5.52412Z" stroke="#9C9CAB" stroke-width="0.875" stroke-linecap="round" stroke-linejoin="round"/>
<path d="M10.395 3.36578C9.37414 2.59578 8.20747 2.17578 6.99997 2.17578C4.9408 2.17578 3.02164 3.38911 1.6858 5.48911C1.1608 6.31161 1.1608 7.69411 1.6858 8.51661C2.14664 9.23995 2.6833 9.86411 3.26664 10.3658" stroke="#9C9CAB" stroke-width="0.875" stroke-linecap="round" stroke-linejoin="round"/>
<path d="M4.91168 11.3924C5.57668 11.6724 6.28252 11.8241 7.00002 11.8241C9.05918 11.8241 10.9783 10.6107 12.3142 8.51073C12.8392 7.68823 12.8392 6.30573 12.3142 5.48323C12.1217 5.1799 11.9117 4.89407 11.6958 4.62573" stroke="#9C9CAB" stroke-width="0.875" stroke-linecap="round" stroke-linejoin="round"/>
<path d="M9.04753 7.40845C8.89586 8.23095 8.22503 8.90178 7.40253 9.05345" stroke="#9C9CAB" stroke-width="0.875" stroke-linecap="round" stroke-linejoin="round"/>
<path d="M5.52419 8.47583L1.16669 12.8333" stroke="#9C9CAB" stroke-width="0.875" stroke-linecap="round" stroke-linejoin="round"/>
<path d="M12.8333 1.16675L8.47583 5.52425" stroke="#9C9CAB" stroke-width="0.875" stroke-linecap="round" stroke-linejoin="round"/>
</svg>
